<svg xmlns="http://www.w3.org/2000/svg" width="18.652" height="14.922" viewBox="0 0 18.652 14.922">
  <path id="Icon_awesome-car-alt" data-name="Icon awesome-car-alt" d="M17.046,10.264l-.437-1.092-.774-1.936A4.331,4.331,0,0,0,11.794,4.5H6.859A4.331,4.331,0,0,0,2.818,7.236L2.043,9.172l-.437,1.092A2.482,2.482,0,0,0,0,12.583v1.865a2.467,2.467,0,0,0,.622,1.629v2.1a1.244,1.244,0,0,0,1.243,1.243H3.109a1.244,1.244,0,0,0,1.243-1.243V16.935H14.3v1.243a1.244,1.244,0,0,0,1.243,1.243h1.243a1.244,1.244,0,0,0,1.243-1.243v-2.1a2.465,2.465,0,0,0,.622-1.629V12.583A2.482,2.482,0,0,0,17.046,10.264ZM5.127,8.159A1.865,1.865,0,0,1,6.859,6.987h4.935a1.865,1.865,0,0,1,1.732,1.172L14.3,10.1H4.352l.774-1.936ZM3.109,14.44A1.173,1.173,0,0,1,1.865,13.2a1.173,1.173,0,0,1,1.243-1.24A2.392,2.392,0,0,1,4.974,13.82C4.974,14.564,3.855,14.44,3.109,14.44Zm12.435,0c-.746,0-1.865.124-1.865-.62a2.392,2.392,0,0,1,1.865-1.859,1.173,1.173,0,0,1,1.243,1.24A1.173,1.173,0,0,1,15.544,14.44Z" transform="translate(0 -4.5)" fill="#8aaa89"/>
</svg>
