<svg xmlns="http://www.w3.org/2000/svg" width="25" height="25" viewBox="0 0 25 25">
  <g id="Icon_ionic-ios-checkmark-circle-outline" data-name="Icon ionic-ios-checkmark-circle-outline" transform="translate(-3.375 -3.375)">
    <path id="Path_9" data-name="Path 9" d="M23.627,13.335l-1.084-1.059a.239.239,0,0,0-.172-.07h0a.229.229,0,0,0-.172.07l-7.514,7.189-2.735-2.6a.247.247,0,0,0-.345,0l-1.1,1.041a.225.225,0,0,0,0,.333l3.449,3.276a1.115,1.115,0,0,0,.721.333,1.166,1.166,0,0,0,.714-.322H15.4l8.235-7.862A.241.241,0,0,0,23.627,13.335Z" transform="translate(-1.187 -1.151)" fill="#8aaa89"/>
    <path id="Path_10" data-name="Path 10" d="M15.875,5.058a10.813,10.813,0,1,1-7.65,3.167,10.746,10.746,0,0,1,7.65-3.167m0-1.683a12.5,12.5,0,1,0,12.5,12.5,12.5,12.5,0,0,0-12.5-12.5Z" transform="translate(0 0)" fill="#8aaa89"/>
  </g>
</svg>
