<svg xmlns="http://www.w3.org/2000/svg" width="108.628" height="108.665" viewBox="0 0 108.628 108.665">
  <g id="confetti" transform="translate(-0.082)">
    <g id="Group_93" data-name="Group 93" transform="translate(0.082 25.677)">
      <g id="Group_92" data-name="Group 92">
        <path id="Path_30" data-name="Path 30" d="M74.157,155.937a1.81,1.81,0,0,0-3.406,1.227c.008.023.017.046.026.069,1.651,4.309,1.771,7.6.326,9.052-1.752,1.749-6.117,1.2-11.679-1.459a77.437,77.437,0,0,1-20.039-14.954c-14.181-14.182-20.032-28.1-16.413-31.718a4.946,4.946,0,0,1,4.1-.956,1.81,1.81,0,0,0,.351-3.6,8.337,8.337,0,0,0-7.006,1.991c-6.633,6.631,3.507,23.93,16.413,36.838a80.965,80.965,0,0,0,21.037,15.658,35.668,35.668,0,0,0,4.367,1.747l-12.863,4.877A51.242,51.242,0,0,1,16.96,134.8a1.811,1.811,0,0,0-3.577.561,54.811,54.811,0,0,0,31.091,41.2L23.3,184.568a1.778,1.778,0,0,0-.362-.431,25.224,25.224,0,0,1-9.342-17.53l-.84-10.173a1.789,1.789,0,0,0-1.9-1.665l-.056,0a1.811,1.811,0,0,0-1.661,1.948s0,.008,0,.012L9.994,166.9a28.839,28.839,0,0,0,9.579,19.072l-15.1,5.717,2.716-11.145a1.811,1.811,0,0,0-3.519-.858L.135,194.174a1.81,1.81,0,0,0,2.4,2.124l66.984-25.345a1.686,1.686,0,0,0,.3-.188,7.033,7.033,0,0,0,3.843-1.917C75.457,167.053,77,163.354,74.157,155.937Z" transform="translate(-0.082 -113.468)" fill="#8aaa89"/>
      </g>
    </g>
    <g id="Group_95" data-name="Group 95" transform="translate(52.631 59.693)">
      <g id="Group_94" data-name="Group 94">
        <path id="Path_31" data-name="Path 31" d="M270.9,267.566a59.618,59.618,0,0,0-30.673-2.978l-6.468,1.086a1.81,1.81,0,0,0,.6,3.57l6.467-1.077a55.953,55.953,0,0,1,28.807,2.8,1.865,1.865,0,0,0,.635.107,1.81,1.81,0,0,0,.635-3.507Z" transform="translate(-232.294 -263.781)" fill="#8aaa89"/>
      </g>
    </g>
    <g id="Group_97" data-name="Group 97" transform="translate(56.214 34.396)">
      <g id="Group_96" data-name="Group 96">
        <path id="Path_32" data-name="Path 32" d="M289.589,153.029a1.811,1.811,0,0,0-2.413-.856l-38.018,18.1a1.81,1.81,0,0,0-.857,2.413h0a1.81,1.81,0,0,0,2.413.857h0l38.018-18.1A1.811,1.811,0,0,0,289.589,153.029Z" transform="translate(-248.126 -151.997)" fill="#8aaa89"/>
      </g>
    </g>
    <g id="Group_99" data-name="Group 99" transform="translate(35.044 10.837)">
      <g id="Group_98" data-name="Group 98">
        <path id="Path_33" data-name="Path 33" d="M163.583,49.337a1.81,1.81,0,1,0-3.548.721c0,.022.009.043.014.065a50.641,50.641,0,0,1-2.7,30.612l-2.632,6.316a1.81,1.81,0,0,0,.972,2.361,1.784,1.784,0,0,0,.7.139,1.81,1.81,0,0,0,1.671-1.113l2.634-6.309A54.239,54.239,0,0,0,163.583,49.337Z" transform="translate(-154.576 -47.887)" fill="#8aaa89"/>
      </g>
    </g>
    <g id="Group_101" data-name="Group 101" transform="translate(94.227 65.174)">
      <g id="Group_100" data-name="Group 100">
        <path id="Path_34" data-name="Path 34" d="M421.536,288a5.431,5.431,0,1,0,5.431,5.431A5.431,5.431,0,0,0,421.536,288Zm0,7.242a1.81,1.81,0,1,1,1.81-1.81A1.81,1.81,0,0,1,421.536,295.242Z" transform="translate(-416.105 -288)" fill="#8aaa89"/>
      </g>
    </g>
    <g id="Group_103" data-name="Group 103" transform="translate(50.778 14.483)">
      <g id="Group_102" data-name="Group 102">
        <path id="Path_35" data-name="Path 35" d="M229.536,64a5.431,5.431,0,1,0,5.431,5.431A5.431,5.431,0,0,0,229.536,64Zm0,7.242a1.81,1.81,0,1,1,1.81-1.81A1.81,1.81,0,0,1,229.536,71.242Z" transform="translate(-224.105 -64)" fill="#8aaa89"/>
      </g>
    </g>
    <g id="Group_105" data-name="Group 105" transform="translate(36.295)">
      <g id="Group_104" data-name="Group 104">
        <circle id="Ellipse_3" data-name="Ellipse 3" cx="3.621" cy="3.621" r="3.621" fill="#8aaa89"/>
      </g>
    </g>
    <g id="Group_107" data-name="Group 107" transform="translate(88.796 9.052)">
      <g id="Group_106" data-name="Group 106">
        <path id="Path_36" data-name="Path 36" d="M393.915,40a1.81,1.81,0,0,0-1.81,1.81v1.81a1.81,1.81,0,0,0,3.621,0V41.81A1.81,1.81,0,0,0,393.915,40Z" transform="translate(-392.105 -40)" fill="#8aaa89"/>
      </g>
    </g>
    <g id="Group_109" data-name="Group 109" transform="translate(88.796)">
      <g id="Group_108" data-name="Group 108">
        <path id="Path_37" data-name="Path 37" d="M393.915,0a1.81,1.81,0,0,0-1.81,1.81v1.81a1.81,1.81,0,0,0,3.621,0V1.81A1.81,1.81,0,0,0,393.915,0Z" transform="translate(-392.105)" fill="#8aaa89"/>
      </g>
    </g>
    <g id="Group_111" data-name="Group 111" transform="translate(92.416 5.431)">
      <g id="Group_110" data-name="Group 110">
        <path id="Path_38" data-name="Path 38" d="M411.726,24h-1.81a1.81,1.81,0,0,0,0,3.621h1.81a1.81,1.81,0,0,0,0-3.621Z" transform="translate(-408.105 -24)" fill="#8aaa89"/>
      </g>
    </g>
    <g id="Group_113" data-name="Group 113" transform="translate(83.365 5.431)">
      <g id="Group_112" data-name="Group 112">
        <path id="Path_39" data-name="Path 39" d="M371.726,24h-1.81a1.81,1.81,0,1,0,0,3.621h1.81a1.81,1.81,0,0,0,0-3.621Z" transform="translate(-368.105 -24)" fill="#8aaa89"/>
      </g>
    </g>
    <g id="Group_115" data-name="Group 115" transform="translate(67.033 19.876)">
      <g id="Group_114" data-name="Group 114">
        <path id="Path_40" data-name="Path 40" d="M306.837,87.832h-9.09a1.81,1.81,0,0,0-1.81,1.81v9.09a1.81,1.81,0,0,0,1.81,1.81h9.09a1.81,1.81,0,0,0,1.81-1.81v-9.09A1.81,1.81,0,0,0,306.837,87.832Zm-1.81,9.09h-5.469V91.453h5.469Z" transform="translate(-295.937 -87.832)" fill="#8aaa89"/>
      </g>
    </g>
    <g id="Group_117" data-name="Group 117" transform="translate(43.537 34.421)">
      <g id="Group_116" data-name="Group 116">
        <path id="Path_41" data-name="Path 41" d="M213.315,152.678a1.81,1.81,0,0,0-2.506-.131l-18.1,16.293a1.81,1.81,0,0,0,2.422,2.69l18.1-16.293A1.81,1.81,0,0,0,213.315,152.678Z" transform="translate(-192.107 -152.105)" fill="#8aaa89"/>
      </g>
    </g>
    <g id="Group_119" data-name="Group 119" transform="translate(96.037 41.639)">
      <g id="Group_118" data-name="Group 118">
        <path id="Path_42" data-name="Path 42" d="M425.915,184a1.81,1.81,0,0,0-1.81,1.81v1.81a1.81,1.81,0,1,0,3.621,0v-1.81A1.81,1.81,0,0,0,425.915,184Z" transform="translate(-424.105 -184)" fill="#8aaa89"/>
      </g>
    </g>
    <g id="Group_121" data-name="Group 121" transform="translate(101.181 39.539)">
      <g id="Group_120" data-name="Group 120">
        <path id="Path_43" data-name="Path 43" d="M451.184,176.51l-1.28-1.28a1.81,1.81,0,0,0-2.56,2.56l1.28,1.28a1.81,1.81,0,0,0,2.56-2.56Z" transform="translate(-446.836 -174.722)" fill="#8aaa89"/>
      </g>
    </g>
    <g id="Group_123" data-name="Group 123" transform="translate(103.279 34.397)">
      <g id="Group_122" data-name="Group 122">
        <path id="Path_44" data-name="Path 44" d="M459.726,152h-1.81a1.81,1.81,0,1,0,0,3.621h1.81a1.81,1.81,0,1,0,0-3.621Z" transform="translate(-456.105 -152)" fill="#8aaa89"/>
      </g>
    </g>
    <g id="Group_125" data-name="Group 125" transform="translate(101.159 28.02)">
      <g id="Group_124" data-name="Group 124">
        <path id="Path_45" data-name="Path 45" d="M451.064,124.327a1.811,1.811,0,0,0-2.516,0l-1.28,1.28a1.81,1.81,0,0,0,1.28,3.09h0a1.81,1.81,0,0,0,1.28-.53l1.28-1.28A1.81,1.81,0,0,0,451.064,124.327Z" transform="translate(-446.739 -123.818)" fill="#8aaa89"/>
      </g>
    </g>
    <g id="Group_127" data-name="Group 127" transform="translate(96.037 25.345)">
      <g id="Group_126" data-name="Group 126">
        <path id="Path_46" data-name="Path 46" d="M425.915,112a1.81,1.81,0,0,0-1.81,1.81v1.81a1.81,1.81,0,1,0,3.621,0v-1.81A1.81,1.81,0,0,0,425.915,112Z" transform="translate(-424.105 -112)" fill="#8aaa89"/>
      </g>
    </g>
    <g id="Group_129" data-name="Group 129" transform="translate(89.658 28.02)">
      <g id="Group_128" data-name="Group 128">
        <path id="Path_47" data-name="Path 47" d="M400.263,125.606l-1.28-1.28a1.81,1.81,0,0,0-2.56,2.56l1.28,1.28a1.81,1.81,0,0,0,2.56-2.56Z" transform="translate(-395.915 -123.818)" fill="#8aaa89"/>
      </g>
    </g>
    <g id="Group_131" data-name="Group 131" transform="translate(0.085 0.082)">
      <g id="Group_130" data-name="Group 130">
        <path id="Path_48" data-name="Path 48" d="M21.733,8.107a1.81,1.81,0,0,0-1.461-1.231L14.959,6.1l-2.37-4.814a1.885,1.885,0,0,0-3.248,0L6.96,6.1l-5.313.773A1.81,1.81,0,0,0,.64,9.963L4.484,13.71,3.579,19a1.81,1.81,0,0,0,2.629,1.915l4.752-2.506,4.752,2.5A1.81,1.81,0,0,0,18.339,19l-.905-5.292,3.845-3.747A1.81,1.81,0,0,0,21.733,8.107Zm-7.515,3.675a1.81,1.81,0,0,0-.521,1.6L14.146,16,11.8,14.762a1.811,1.811,0,0,0-1.684,0L7.764,16l.449-2.616a1.81,1.81,0,0,0-.512-1.6L5.8,9.93l2.627-.382a1.81,1.81,0,0,0,1.363-.99l1.171-2.377,1.173,2.377a1.81,1.81,0,0,0,1.361.99l2.625.382Z" transform="translate(-0.095 -0.361)" fill="#8aaa89"/>
      </g>
    </g>
    <g id="Group_133" data-name="Group 133" transform="translate(81.597 77.853)">
      <g id="Group_132" data-name="Group 132">
        <path id="Path_49" data-name="Path 49" d="M381.291,356.923h-.007l-.746-1.119a27.32,27.32,0,0,0-18.178-11.755,1.81,1.81,0,0,0-.6,3.57,23.686,23.686,0,0,1,13.815,7.7,10.681,10.681,0,0,0-7.242,4.973,7.242,7.242,0,0,0,12.645,7.06,10.5,10.5,0,0,0,1.175-4.647,8.846,8.846,0,0,1,.4,9.4,1.81,1.81,0,0,0,3.114,1.847c.016-.028.032-.055.047-.084A12.638,12.638,0,0,0,381.291,356.923Zm-3.467,8.664a3.621,3.621,0,0,1-6.34-3.5l.016-.029a6.784,6.784,0,0,1,4.9-3.19,1.841,1.841,0,0,1,.905.21C378.836,359.932,378.918,363.628,377.824,365.587Z" transform="translate(-360.294 -344.031)" fill="#8aaa89"/>
      </g>
    </g>
  </g>
</svg>
