<svg xmlns="http://www.w3.org/2000/svg" width="17.889" height="17.889" viewBox="0 0 17.889 17.889">
  <g id="exclamation" opacity="0.45">
    <g id="Group_157" data-name="Group 157">
      <g id="Group_156" data-name="Group 156">
        <path id="Path_76" data-name="Path 76" d="M8.945,0a8.945,8.945,0,1,0,8.945,8.945A8.94,8.94,0,0,0,8.945,0Zm0,16.492a7.547,7.547,0,1,1,7.547-7.547A7.543,7.543,0,0,1,8.945,16.492Z" fill="#37454c"/>
      </g>
    </g>
    <g id="Group_159" data-name="Group 159" transform="translate(8.246 4.503)">
      <g id="Group_158" data-name="Group 158">
        <path id="Path_77" data-name="Path 77" d="M236.7,128.877a.7.7,0,0,0-.7.7v4.5a.7.7,0,1,0,1.4,0v-4.5A.7.7,0,0,0,236.7,128.877Z" transform="translate(-236 -128.877)" fill="#37454c"/>
      </g>
    </g>
    <g id="Group_161" data-name="Group 161" transform="translate(8.001 11.256)">
      <g id="Group_160" data-name="Group 160">
        <circle id="Ellipse_4" data-name="Ellipse 4" cx="0.943" cy="0.943" r="0.943" fill="#37454c"/>
      </g>
    </g>
  </g>
</svg>
