<svg xmlns="http://www.w3.org/2000/svg" width="25" height="25" viewBox="0 0 25 25">
  <g id="logout_1_" data-name="logout (1)" transform="translate(0 -0.004)">
    <path id="Path_16" data-name="Path 16" d="M14.2,13.545a1,1,0,0,0-.947,1.042v4.167a1,1,0,0,1-.947,1.042H9.466V4.17A2.1,2.1,0,0,0,8.177,2.19l-.28-.1h4.409a1,1,0,0,1,.947,1.042V6.254a.951.951,0,1,0,1.893,0V3.129A3,3,0,0,0,12.306,0H2.13a.685.685,0,0,0-.1.023C1.983.023,1.94,0,1.893,0A2,2,0,0,0,0,2.087v18.75a2.1,2.1,0,0,0,1.289,1.98l5.7,2.09a1.8,1.8,0,0,0,.587.1A2,2,0,0,0,9.466,22.92V21.879h2.84a3,3,0,0,0,2.84-3.125V14.587A1,1,0,0,0,14.2,13.545Zm0,0" transform="translate(0 0)" fill="#8aaa89"/>
    <path id="Path_17" data-name="Path 17" d="M287.467,110.729l-3.787-3.786a.946.946,0,0,0-1.616.669v2.84h-3.786a.947.947,0,1,0,0,1.893h3.786v2.84a.946.946,0,0,0,1.616.669l3.787-3.787A.946.946,0,0,0,287.467,110.729Zm0,0" transform="translate(-262.745 -101.114)" fill="#8aaa89"/>
  </g>
</svg>
