<svg xmlns="http://www.w3.org/2000/svg" width="106.609" height="19.426" viewBox="0 0 106.609 19.426">
  <g id="Group_141" data-name="Group 141" transform="translate(-2058.89 -2637.13)">
    <path id="Path_20" data-name="Path 20" d="M2065.426,2637.13a4.558,4.558,0,0,0-3.341,1.176,4.47,4.47,0,0,0-1.195,3.335v1.54h-2v2.183h2v8.707l-1.831.364v1.867h7.167v-1.867l-2.292-.364v-8.707h2.935v-2.183h-2.935v-1.54a2.252,2.252,0,0,1,.479-1.552,1.85,1.85,0,0,1,1.449-.533,6.592,6.592,0,0,1,.74.042,5.382,5.382,0,0,1,.63.1l.3-2.292a9.391,9.391,0,0,0-1.043-.2A7.867,7.867,0,0,0,2065.426,2637.13Z" fill="#8aaa89"/>
    <path id="Path_21" data-name="Path 21" d="M2098.381,2656.652a5.977,5.977,0,0,0-3.25-.855,5.9,5.9,0,0,0-3.226.861,5.648,5.648,0,0,0-2.086,2.365,7.844,7.844,0,0,0-.728,3.456v.255a7.913,7.913,0,0,0,.728,3.474,5.562,5.562,0,0,0,2.086,2.359,6.612,6.612,0,0,0,6.481,0,5.576,5.576,0,0,0,2.08-2.359,7.913,7.913,0,0,0,.728-3.474v-.255a7.872,7.872,0,0,0-.728-3.468A5.609,5.609,0,0,0,2098.381,2656.652Zm-.231,6.082a7.068,7.068,0,0,1-.327,2.249,3.3,3.3,0,0,1-.988,1.528,2.533,2.533,0,0,1-1.68.552,2.581,2.581,0,0,1-1.691-.552,3.219,3.219,0,0,1-.994-1.528,7.187,7.187,0,0,1-.322-2.249v-.255a7.09,7.09,0,0,1,.322-2.231,3.28,3.28,0,0,1,.988-1.528,2.52,2.52,0,0,1,1.673-.558,2.558,2.558,0,0,1,1.7.558,3.32,3.32,0,0,1,.994,1.528,6.973,6.973,0,0,1,.327,2.231Z" transform="translate(-20.804 -12.859)" fill="#8aaa89"/>
    <path id="Path_22" data-name="Path 22" d="M2182.066,2656.319a4.57,4.57,0,0,0,2.717.8,4.4,4.4,0,0,0,2.067-.467,4.145,4.145,0,0,0,1.51-1.376l.242,1.589h4.463V2655l-1.819-.364v-16.686h-4.984v1.879l1.928.364v4.972a4.214,4.214,0,0,0-1.449-1.231,4.655,4.655,0,0,0-4.668.443,5.445,5.445,0,0,0-1.734,2.437,10.2,10.2,0,0,0-.6,3.662v.255a8.65,8.65,0,0,0,.6,3.353A5.048,5.048,0,0,0,2182.066,2656.319Zm.728-5.845a8.417,8.417,0,0,1,.3-2.383,3.391,3.391,0,0,1,.94-1.6,2.337,2.337,0,0,1,1.631-.576,2.7,2.7,0,0,1,1.486.406,3.122,3.122,0,0,1,1.037,1.11v5.784a2.973,2.973,0,0,1-1.043,1.11,2.848,2.848,0,0,1-1.5.382,2.37,2.37,0,0,1-2.177-1.079,5.436,5.436,0,0,1-.673-2.9Z" transform="translate(-83.244 -0.564)" fill="#8aaa89"/>
    <path id="Path_23" data-name="Path 23" d="M2239.013,2637.954h-.534a15.52,15.52,0,0,0-2.231-.618,11.164,11.164,0,0,0-2.122-.206,5.166,5.166,0,0,0-3.662,1.231,4.53,4.53,0,0,0-1.321,3.486v1.334h-1.916v1.176h1.916v10.732l-1.977.158v1.055h5.408v-1.055l-1.977-.158v-10.732h3.4v-1.176h-3.4v-1.334a3.425,3.425,0,0,1,.873-2.547,3.775,3.775,0,0,1,2.74-.861,10.226,10.226,0,0,1,3.347.521v16.128l-1.977.158v1.055h5.408v-1.055l-1.977-.158Z" transform="translate(-115.913)" fill="#8aaa89"/>
    <path id="Path_24" data-name="Path 24" d="M2288.322,2656.646a5.928,5.928,0,0,0-6.112,0,5.668,5.668,0,0,0-2.025,2.341,7.758,7.758,0,0,0-.722,3.419v.4a7.8,7.8,0,0,0,.722,3.426,5.614,5.614,0,0,0,2.025,2.34,5.537,5.537,0,0,0,3.074.843,5.472,5.472,0,0,0,3.038-.843,5.629,5.629,0,0,0,2.025-2.334,7.791,7.791,0,0,0,.721-3.432v-.4a7.751,7.751,0,0,0-.721-3.426A5.683,5.683,0,0,0,2288.322,2656.646Zm1.292,6.16a6.94,6.94,0,0,1-.521,2.741,4.582,4.582,0,0,1-1.492,1.94,3.8,3.8,0,0,1-2.316.715,3.88,3.88,0,0,1-2.359-.715,4.517,4.517,0,0,1-1.491-1.934,6.991,6.991,0,0,1-.515-2.747v-.4a6.971,6.971,0,0,1,.515-2.729,4.514,4.514,0,0,1,1.491-1.94,4.164,4.164,0,0,1,4.669,0,4.561,4.561,0,0,1,1.5,1.94,6.907,6.907,0,0,1,.521,2.729Z" transform="translate(-151.938 -12.859)" fill="#8aaa89"/>
    <path id="Path_25" data-name="Path 25" d="M2337.59,2657.643l1.722.109-2.255,7.688-.7,2.292-.073.012-.752-2.3-2.983-8.865h-1.285l-3,8.876-.7,2.158h-.073l-.606-2.158-2.256-7.688,1.71-.121v-1.067h-4.669v1.067l1.479.073,3.662,11.981h1.31l3.092-8.949.655-2.146.073-.012.667,2.159,3.068,8.949h1.407l3.65-11.957,1.479-.1v-1.067h-4.62Z" transform="translate(-181.01 -13.395)" fill="#8aaa89"/>
    <path id="Path_26" data-name="Path 26" d="M2140.856,2670.256a4.493,4.493,0,1,0-.619-6.324A4.493,4.493,0,0,0,2140.856,2670.256Z" transform="translate(-55.331 -17.332)" fill="#8aaa89"/>
    <path id="Path_27" data-name="Path 27" d="M2388.447,2638.265h.614v1.6h.381v-1.6h.614v-.317h-1.608Z" transform="translate(-227.009 -0.564)" fill="#8aaa89"/>
    <path id="Path_28" data-name="Path 28" d="M2396.169,2637.948h-.55l-.332.945c-.042.141-.084.3-.134.479h-.007c-.049-.2-.085-.338-.127-.486l-.332-.938h-.571l-.141,1.918h.367l.071-1.128c.007-.177.014-.359.014-.536h.021c.042.169.1.395.134.543l.345,1.093h.4l.346-1.065c.056-.176.112-.4.162-.571h.021c.007.2.007.388.014.536l.07,1.128h.381Z" transform="translate(-230.818 -0.564)" fill="#8aaa89"/>
  </g>
</svg>
