<svg xmlns="http://www.w3.org/2000/svg" width="16.411" height="12.992" viewBox="0 0 16.411 12.992">
  <g id="Icon_ionic-ios-list" data-name="Icon ionic-ios-list" transform="translate(-4.5 -7.313)">
    <path id="Path_3" data-name="Path 3" d="M6.893,17.228a1.2,1.2,0,1,1-1.2-1.2A1.2,1.2,0,0,1,6.893,17.228Z" transform="translate(0 -3.419)" fill="#8aaa89"/>
    <path id="Path_4" data-name="Path 4" d="M6.893,8.509a1.2,1.2,0,1,1-1.2-1.2A1.2,1.2,0,0,1,6.893,8.509Z" transform="translate(0 0)" fill="#8aaa89"/>
    <path id="Path_5" data-name="Path 5" d="M6.893,25.947a1.2,1.2,0,1,1-1.2-1.2A1.2,1.2,0,0,1,6.893,25.947Z" transform="translate(0 -6.839)" fill="#8aaa89"/>
    <path id="Path_6" data-name="Path 6" d="M23.3,16.875H13.024a.684.684,0,1,0,0,1.368H23.3a.684.684,0,1,0,0-1.368Z" transform="translate(-3.075 -3.75)" fill="#8aaa89"/>
    <path id="Path_7" data-name="Path 7" d="M23.3,25.594H13.024a.684.684,0,0,0,0,1.368H23.3a.684.684,0,1,0,0-1.368Z" transform="translate(-3.075 -7.17)" fill="#8aaa89"/>
    <path id="Path_8" data-name="Path 8" d="M13.024,9.524H23.3a.684.684,0,1,0,0-1.368H13.024a.684.684,0,1,0,0,1.368Z" transform="translate(-3.075 -0.331)" fill="#8aaa89"/>
  </g>
</svg>
